<?xml version="1.0" standalone="no"?><!DOCTYPE svg PUBLIC "-//W3C//DTD SVG 1.1//EN" "http://www.w3.org/Graphics/SVG/1.1/DTD/svg11.dtd"><svg t="1756372043097" class="icon" viewBox="0 0 1024 1024" version="1.1" xmlns="http://www.w3.org/2000/svg" p-id="22247" xmlns:xlink="http://www.w3.org/1999/xlink" width="256" height="256"><path d="M513 81.3c-152.8 0-276.7 123.9-276.7 276.7 0 61.7 20.2 118.8 54.4 164.8 45.6 61.4 192.4 281.4 218.4 425.1h8.4c26.9-143.4 169-361.7 214.8-421 36.1-46.7 57.5-105.3 57.5-168.9-0.1-152.9-124-276.7-276.8-276.7z m0 313.4c-38.1 0-68.9-30.9-68.9-68.9 0-38.1 30.9-68.9 68.9-68.9s68.9 30.9 68.9 68.9c0 38.1-30.8 68.9-68.9 68.9z" fill="#DD1717" p-id="22248"></path></svg>