<?xml version="1.0" standalone="no"?><!DOCTYPE svg PUBLIC "-//W3C//DTD SVG 1.1//EN" "http://www.w3.org/Graphics/SVG/1.1/DTD/svg11.dtd"><svg t="1756191580097" class="icon" viewBox="0 0 1024 1024" version="1.1" xmlns="http://www.w3.org/2000/svg" p-id="4512" xmlns:xlink="http://www.w3.org/1999/xlink" width="256" height="256"><path d="M387.6864 967.68a123.5968 36.5568 0 1 0 247.1936 0 123.5968 36.5568 0 1 0-247.1936 0Z" fill="#AEAEAE" p-id="4513"></path><path d="M509.8496 0c168.448 0 305.0496 140.1856 305.0496 313.002667 0 175.7184-144.4864 215.313067-234.632533 397.892266-26.0096 52.701867-60.962133 223.3344-69.973334 221.661867l-0.443733-0.1024a1.194667 1.194667 0 0 1-0.477867 0.2048c-8.977067 1.6384-43.9296-168.96-69.973333-221.696C349.2864 528.349867 204.8 488.7552 204.8 313.002667 204.8 140.1856 341.4016 0 509.8496 0z m0 126.702933a169.813333 169.813333 0 1 0 0 339.626667 169.813333 169.813333 0 0 0 0-339.626667z" fill="#00B94D" p-id="4514"></path></svg>